<svg xmlns="http://www.w3.org/2000/svg" width="81" height="31" fill="none">
  <path fill="#030A06" d="M13.163 0c-.16 0-.33 0-.487.02-1.84.153-3.531.934-4.736 2.358-1.31 1.55-1.627 3.183-1.612 5.156l-3.506-.006c-.157 0-.319-.004-.483-.009-.458-.012-.933-.026-1.361.053a1.218 1.218 0 0 0-.666.362c-.318.331-.326.75-.305 1.178.032.676.09 1.353.148 2.029.032.367.063.735.09 1.102l.583 7.519.283 3.63c.014.18.025.36.036.543.04.65.08 1.309.252 1.93a5.826 5.826 0 0 0 4.19 4.086c.787.19 1.7.168 2.557.148.255-.006.506-.012.746-.012l4.72-.001 4.122.002c.225 0 .457.005.691.01.762.019 1.555.038 2.267-.128a5.93 5.93 0 0 0 2.744-1.507c.68-.675 1.223-1.575 1.46-2.506.182-.711.228-1.492.272-2.25.015-.244.029-.486.047-.722l.387-4.98.482-6.113c.024-.302.054-.608.084-.913.066-.663.132-1.331.13-1.987 0-.403-.086-.778-.374-1.078-.2-.206-.524-.307-.799-.352-.412-.067-.864-.055-1.301-.043-.162.004-.321.008-.476.009-1.103-.003-2.206.001-3.308.011h-.047c.025-2.112-.445-3.925-1.964-5.47A6.77 6.77 0 0 0 13.186 0h-.023Zm6.682 12.051.06.004c0 .004.002.008.004.011l.002.005a.415.415 0 0 0 .007.017l.002.006c.011.024.013.029.013.069-.02 2.59-.713 5.926-2.552 7.823-1.702 1.757-4.346 2.62-6.758 2.667 1.124-2.112 2.928-4.116 4.79-5.603.288-.23.59-.438.89-.646.195-.134.39-.268.58-.408.185-.136.435-.32.461-.568.024-.228-.097-.405-.24-.569-.2-.116-.347-.164-.576-.097-.324.095-.651.335-.946.552-.079.057-.155.113-.228.164a19.83 19.83 0 0 0-5.808 6.435c-.049-2.072.423-3.808 1.694-5.475 1.907-2.501 5.558-3.971 8.605-4.387ZM1.315 8.826h23.682c-.084.797-.138 1.602-.192 2.406-.03.448-.061.895-.096 1.341l-.638 7.991-.239 2.945-.03.385c-.038.508-.076 1.02-.174 1.518-.101.51-.297.954-.561 1.4a4.945 4.945 0 0 1-.332.446c-.686.82-1.813 1.431-2.884 1.512-.583.044-1.183.033-1.777.023-.257-.005-.513-.01-.767-.01l-4.913-.002-3.91.002c-.188 0-.38.004-.574.008-.593.012-1.2.025-1.77-.073a4.223 4.223 0 0 1-2.022-.954A4.416 4.416 0 0 1 2.7 25.532c-.16-.578-.2-1.194-.238-1.798-.01-.152-.02-.303-.032-.453l-.232-2.996-.882-11.459Zm19.056 1.837-.018.002c-3.595.416-7.688 1.894-10.011 4.807-1.494 1.871-2.31 4.306-2.04 6.703.059.526.178 1.03.35 1.53l-.07.177c-.295.742-.981 2.465-.743 2.975.07.147.21.246.362.294.063.02.126.032.192.04.201-.034.387-.076.508-.256.13-.194.264-.659.378-1.057.054-.19.104-.364.147-.487.148-.42.316-.832.483-1.244l.002-.005.059-.145c2.964.01 6.13-.919 8.275-3.035 2.399-2.367 3.003-6.183 3.008-9.413 0-.255-.018-.557-.204-.752-.114-.12-.287-.156-.447-.152-.077.002-.154.01-.231.018Zm-7.496-9.368c.114-.007.23-.013.345-.012 1.408.01 2.818.64 3.807 1.632 1.347 1.35 1.623 2.785 1.626 4.619l-5.16-.003-5.805.007c-.044-1.576.21-3.016 1.244-4.261.994-1.196 2.412-1.845 3.943-1.982Z"/>
  <path fill="#030A06" d="m19.904 12.055-.06-.004c-3.046.415-6.697 1.886-8.604 4.387-1.27 1.667-1.742 3.403-1.694 5.475a19.828 19.828 0 0 1 5.808-6.435c.074-.05.15-.107.228-.164.295-.217.622-.457.946-.552.229-.067.376-.019.576.097.143.163.264.34.24.569-.026.248-.276.432-.46.568-.192.14-.386.274-.58.408-.302.208-.603.416-.89.645-1.863 1.488-3.667 3.492-4.79 5.604 2.41-.048 5.055-.91 6.758-2.667 1.838-1.897 2.532-5.233 2.55-7.824.001-.04 0-.044-.012-.069l-.01-.022-.006-.016Zm.45-1.39.017-.002c.077-.008.154-.017.231-.018.16-.004.333.032.447.152.186.195.204.497.204.752-.005 3.23-.61 7.046-3.008 9.413-2.144 2.116-5.31 3.044-8.275 3.035l-.059.145-.002.005c-.167.412-.335.825-.483 1.244-.043.123-.093.297-.147.487-.114.398-.247.863-.378 1.057-.12.18-.307.222-.508.255a1.03 1.03 0 0 1-.192-.039.586.586 0 0 1-.362-.294c-.238-.51.448-2.233.743-2.975l.07-.177a7.128 7.128 0 0 1-.35-1.53c-.27-2.398.546-4.832 2.04-6.704 2.323-2.912 6.416-4.39 10.011-4.806Z"/>
  <path fill="#030A06" d="m20.37 10.663-.017.002c-3.595.416-7.688 1.894-10.011 4.806-1.494 1.872-2.31 4.306-2.04 6.704.059.526.178 1.03.35 1.53l-.07.177c-.295.742-.981 2.465-.743 2.975.07.147.21.246.362.294.063.02.126.032.192.04.201-.034.387-.076.509-.256.13-.194.263-.659.377-1.057.054-.19.104-.364.147-.487.148-.42.316-.832.483-1.244l.002-.005.06-.145c2.964.009 6.13-.919 8.274-3.035 2.399-2.367 3.003-6.183 3.008-9.413 0-.255-.018-.557-.204-.752-.114-.12-.287-.156-.447-.152a2.76 2.76 0 0 0-.231.018Zm-.525 1.388.06.004.006.016.01.023c.01.024.012.029.012.069-.02 2.59-.713 5.926-2.551 7.823-1.703 1.757-4.347 2.62-6.759 2.667 1.124-2.112 2.929-4.116 4.79-5.604.288-.23.59-.437.891-.645.194-.134.388-.268.58-.408.184-.136.434-.32.46-.568.024-.228-.097-.406-.24-.569-.2-.116-.347-.164-.576-.097-.324.095-.651.335-.946.552-.079.057-.155.113-.228.164a19.83 19.83 0 0 0-5.808 6.435c-.048-2.072.423-3.808 1.694-5.475 1.908-2.501 5.558-3.971 8.605-4.387ZM66.66 19.442a4.614 4.614 0 1 0-9.221.326 4.614 4.614 0 0 0 9.221-.326Zm-4.612-3.064c.742.03 1.344.21 1.91.71.676.598 1.052 1.46 1.101 2.354.05.895-.232 1.802-.84 2.468-.557.609-1.251.881-2.064.922-.742-.008-1.355-.123-1.94-.61-.684-.569-1.07-1.41-1.143-2.29-.075-.913.164-1.858.77-2.558.602-.695 1.313-.934 2.206-.995ZM53.837 19.06a4.611 4.611 0 1 0-9.156 1.097 4.611 4.611 0 0 0 9.157-1.097Zm-4.988-2.644c.74-.06 1.408.017 2.032.447.7.481 1.141 1.225 1.287 2.056.165.944.01 1.953-.558 2.74-.497.688-1.118 1.03-1.946 1.162-.756.038-1.423-.008-2.06-.458a3.12 3.12 0 0 1-1.283-2.053c-.154-.914.03-1.966.577-2.727.48-.668 1.149-1.039 1.951-1.167ZM76.332 14.989a4.358 4.358 0 0 0-3.005 1.626c-.833 1.052-1.119 2.386-.954 3.706a4.37 4.37 0 0 0 1.646 2.935c1.089.846 2.469 1.06 3.814.877.778-.107 1.947-.48 2.445-1.127a.841.841 0 0 0 .178-.633.611.611 0 0 0-.226-.414c-.153-.114-.356-.128-.537-.093-.252.05-.477.205-.691.352l-.134.092c-.94.488-1.981.717-3.014.383a2.88 2.88 0 0 1-1.684-1.465c-.178-.355-.267-.732-.346-1.119h4.433c.184 0 .382.007.585.013.526.017 1.089.035 1.553-.048a.695.695 0 0 0 .354-.188c.218-.212.257-.513.25-.803-.025-1.11-.546-2.206-1.354-2.957-.933-.868-2.058-1.194-3.313-1.138Zm.137 1.387a2.754 2.754 0 0 1 1.906.483c.663.47 1.01 1.14 1.15 1.927-.562.007-1.124.005-1.687.003h-.843l-3.117.003c.142-.48.308-.915.615-1.317.494-.647 1.178-.994 1.976-1.099Z"/>
  <path fill="#030A06" d="M51.645 11.692c1.664-.04 3.336-.003 5.001-.006.948-.001 2.16-.078 3.08.017a.637.637 0 0 1 .38.155c.16.14.266.351.272.565.005.194-.114.415-.253.545a.681.681 0 0 1-.374.16c-.383.063-.806.026-1.195.026l-2.066-.004v7.667c.002.645.084 2.055-.013 2.604a.953.953 0 0 1-.212.477.67.67 0 0 1-.494.218c-.198.004-.392-.04-.535-.184-.168-.169-.23-.417-.251-.648-.038-.425-.003-.876.002-1.303.007-.633.001-1.266 0-1.898l.006-6.934c-.687.003-3.065.113-3.552-.108a.629.629 0 0 1-.354-.39.72.72 0 0 1 .062-.588c.116-.211.271-.302.496-.37ZM40.762 14.995a5.717 5.717 0 0 1 1.822.165c.633.17 1.602.543 1.93 1.145.09.165.137.363.073.546-.065.187-.242.33-.42.403-.522.213-1.174-.505-1.665-.69-.797-.3-1.756-.283-2.531.079-.713.333-1.225.963-1.49 1.695-.308.849-.334 1.957.057 2.784.362.768 1.029 1.304 1.82 1.583.905.32 1.849.15 2.694-.256.263-.142.5-.33.8-.393a.551.551 0 0 1 .438.076.806.806 0 0 1 .314.53.67.67 0 0 1-.165.495c-.495.613-1.597.922-2.347 1.014-1.3.16-2.656-.101-3.697-.932a4.544 4.544 0 0 1-1.724-3.134 4.711 4.711 0 0 1 1.006-3.431 4.529 4.529 0 0 1 3.085-1.68ZM68.552 12.667l.078-.004c.23-.007.462.055.625.225.39.406.235 1.776.23 2.336.53.003 1.819-.161 2.216.192a.641.641 0 0 1 .202.494c0 .184-.047.36-.183.489-.37.351-1.71.213-2.236.21.005 1.126-.147 4.596.2 5.45.561 1.382 1.777.167 2.47.494a.67.67 0 0 1 .326.371c.078.219.008.415-.082.616l-.046.05c-.42.436-1.206.541-1.784.55-.671.01-1.305-.105-1.8-.6-.359-.36-.581-.852-.69-1.342-.169-.756-.1-1.594-.099-2.366l.002-3.222c-.406 0-.814-.003-1.22-.01a1.334 1.334 0 0 1-.192-.138.793.793 0 0 1-.24-.574.614.614 0 0 1 .183-.477c.329-.304 1.052-.195 1.47-.188-.002-.586-.13-1.637.09-2.153.1-.229.26-.312.48-.403Z"/>
  <path fill="#030A06" fill-rule="evenodd" d="M36.28 12.447c-.702-.069-4.132-.044-5.322-.027-.22.003-.422.018-.6.031-.152.012-.286.021-.396.022 0 0-.474.11-.628.324-.1.14-.134.317-.158.484-.127.886-.202 1.79-.276 2.692-.039.474-.078.947-.124 1.417l-.452 4.555c-.012.122-.033.288-.056.477-.077.61-.183 1.456-.114 1.792.038.187.137.34.302.438.162.096.346.15.532.182h.001c.383-.001.96.005 1.605.011 1.337.014 4.737.031 5.528-.003.157-.007.324-.02.473-.076.2-.076.364-.22.443-.421a.798.798 0 0 0-.029-.624.626.626 0 0 0-.418-.368h-6.834c.114-1.006.216-2.014.306-3.022l.08-.82.008-.081.208.003c.696.01 4.083.035 4.515-.03.158-.023.306-.063.422-.18a.738.738 0 0 0 .2-.57.734.734 0 0 0-.224-.492.615.615 0 0 0-.322-.148c-.404-.059-3.416-.043-4.176-.033-.204.002-.373.005-.483.005l.346-4.087h3.688c.188 0 .384.006.583.013.481.015.98.03 1.428-.038a.7.7 0 0 0 .41-.195.753.753 0 0 0 .209-.556.729.729 0 0 0-.676-.675Z" clip-rule="evenodd"/>
</svg>
