<svg xmlns="http://www.w3.org/2000/svg" width="32" height="32" fill="none">
  <path fill="#75D281" d="M0 0h32v32H0z"/>
  <path fill="#030A06" d="M15.511 3c-.128 0-.263 0-.39.015-1.469.123-2.819.747-3.78 1.884-1.047 1.238-1.3 2.542-1.288 4.117l-2.8-.004c-.125 0-.254-.004-.386-.008-.365-.01-.744-.02-1.086.042a.972.972 0 0 0-.532.29c-.254.264-.26.598-.244.94.026.54.073 1.08.12 1.62.024.294.05.587.071.88l.465 6.004.226 2.9c.011.143.02.287.029.432.032.52.064 1.046.201 1.542a4.652 4.652 0 0 0 3.346 3.263c.628.151 1.357.134 2.042.118.204-.005.404-.01.596-.01h7.06c.18 0 .365.005.552.01.608.014 1.242.03 1.81-.103a4.736 4.736 0 0 0 2.192-1.203c.543-.539.976-1.258 1.166-2.001.145-.569.181-1.192.217-1.797.01-.195.022-.388.037-.577l.309-3.976.385-4.882a33.7 33.7 0 0 1 .067-.73c.052-.529.105-1.062.104-1.585 0-.322-.069-.622-.3-.861-.158-.165-.417-.245-.637-.281-.329-.054-.69-.044-1.039-.035-.129.003-.256.007-.38.007-.88-.002-1.761.001-2.642.01h-.037c.02-1.687-.355-3.135-1.568-4.369A5.406 5.406 0 0 0 15.53 3h-.019Zm5.336 9.623.047.003a.842.842 0 0 1 .004.01l.001.003.006.014.002.004c.009.02.01.023.01.055-.015 2.069-.57 4.733-2.037 6.248-1.36 1.403-3.471 2.091-5.397 2.13.897-1.688 2.338-3.287 3.825-4.475.23-.184.47-.35.711-.516.155-.107.31-.214.463-.326.148-.108.347-.255.368-.453.019-.183-.078-.324-.192-.454-.16-.093-.277-.132-.46-.078-.259.076-.52.268-.756.44-.062.047-.123.091-.181.132a15.834 15.834 0 0 0-4.638 5.138c-.039-1.655.338-3.04 1.353-4.372 1.523-1.997 4.438-3.171 6.87-3.503ZM6.05 10.048H24.96c-.067.637-.11 1.28-.154 1.921-.024.358-.048.715-.076 1.071l-.51 6.381-.19 2.352-.024.307c-.03.406-.061.815-.14 1.212a3.45 3.45 0 0 1-.448 1.118c-.081.123-.17.242-.264.356-.549.655-1.449 1.143-2.303 1.208-.466.035-.945.026-1.42.018-.204-.004-.41-.008-.611-.008l-3.924-.001-3.122.001c-.15 0-.304.003-.458.007-.474.01-.959.02-1.414-.059a3.372 3.372 0 0 1-1.614-.761 3.526 3.526 0 0 1-1.133-1.783c-.128-.462-.16-.953-.191-1.436a28.228 28.228 0 0 0-.025-.362l-.186-2.392-.704-9.15Zm15.217 1.467-.014.001c-2.871.332-6.14 1.513-7.995 3.838-1.192 1.495-1.844 3.439-1.629 5.353.047.42.143.822.28 1.222l-.056.142c-.236.592-.783 1.968-.593 2.375a.468.468 0 0 0 .289.235c.05.016.1.025.153.031.16-.026.31-.06.406-.203.104-.155.21-.527.301-.845.044-.151.084-.29.118-.388.118-.335.252-.665.386-.994l.001-.004.047-.115c2.368.007 4.896-.734 6.608-2.424 1.916-1.89 2.398-4.938 2.402-7.517 0-.203-.014-.445-.163-.6-.091-.096-.229-.125-.357-.122a2.204 2.204 0 0 0-.184.015Zm-5.986-7.48a4.01 4.01 0 0 1 .275-.01c1.125.007 2.25.51 3.04 1.302 1.076 1.08 1.297 2.224 1.299 3.689l-4.12-.002-4.636.006c-.035-1.26.168-2.41.994-3.403.793-.955 1.925-1.473 3.148-1.583Z"/>
</svg>
