<svg xmlns="http://www.w3.org/2000/svg" aria-hidden="true" style="position:absolute;width:0;height:0;overflow:hidden">
  <defs>
    <symbol id="icon-logo" viewBox="0 0 85 32">
      <path d="M14.104.516c-.165 0-.34 0-.503.02-1.899.158-3.645.965-4.888 2.435-1.353 1.6-1.68 3.285-1.664 5.322L3.43 8.287c-.162 0-.33-.005-.5-.009-.472-.013-.963-.027-1.405.054a1.26 1.26 0 0 0-.687.374C.51 9.048.502 9.48.523 9.922c.034.698.094 1.396.153 2.094.033.379.065.759.093 1.138l.601 7.761.292 3.748c.014.185.026.372.037.559.041.671.083 1.351.26 1.993a6.01 6.01 0 0 0 4.326 4.218c.811.196 1.754.174 2.639.153.264-.006.522-.012.77-.012h9.127c.232 0 .472.006.714.011.786.019 1.605.038 2.34-.133a6.124 6.124 0 0 0 2.833-1.555c.702-.696 1.263-1.626 1.508-2.586.187-.735.235-1.541.28-2.323.015-.252.029-.502.048-.746l.399-5.14.498-6.311c.024-.312.055-.627.087-.943.068-.684.136-1.374.134-2.05-.001-.416-.089-.804-.387-1.113-.205-.213-.541-.317-.824-.363-.425-.069-.892-.057-1.343-.045-.167.004-.332.009-.491.009-1.138-.002-2.277.002-3.415.012l-.049.001c.027-2.181-.459-4.052-2.027-5.647A6.99 6.99 0 0 0 14.127.516h-.024zm6.897 12.44.061.004.005.012a.685.685 0 0 1 .009.022l.002.006c.011.025.013.03.013.071-.02 2.674-.735 6.117-2.634 8.076-1.758 1.814-4.487 2.704-6.976 2.753 1.159-2.181 3.022-4.249 4.944-5.784.297-.237.608-.452.92-.667.2-.138.401-.276.598-.421.191-.14.449-.331.476-.587.025-.236-.101-.418-.248-.587-.207-.12-.358-.17-.594-.101-.335.098-.673.346-.977.57-.081.059-.159.117-.235.169a20.481 20.481 0 0 0-5.996 6.642c-.05-2.139.437-3.931 1.749-5.651 1.969-2.582 5.737-4.1 8.882-4.528zM1.873 9.627H26.32c-.087.823-.143 1.654-.199 2.484-.031.462-.062.924-.099 1.384l-.658 8.249-.246 3.04-.031.398c-.04.524-.079 1.054-.181 1.567-.104.527-.306.985-.579 1.445-.105.16-.22.314-.343.461-.709.847-1.872 1.478-2.977 1.561-.602.045-1.221.034-1.834.023-.265-.005-.53-.01-.791-.01H9.274c-.195 0-.393.004-.592.008-.612.013-1.239.026-1.827-.076a4.362 4.362 0 0 1-2.087-.984 4.568 4.568 0 0 1-1.465-2.305c-.165-.596-.206-1.232-.247-1.856-.01-.157-.02-.313-.032-.467l-.24-3.093-.911-11.828zm19.671 1.896-.018.002c-3.711.429-7.936 1.956-10.334 4.962-1.542 1.932-2.384 4.445-2.106 6.92.061.543.184 1.063.362 1.579l-.072.183c-.305.765-1.012 2.545-.766 3.071a.603.603 0 0 0 .374.304c.065.02.13.032.198.04.208-.034.4-.077.525-.263.134-.2.272-.681.39-1.091.056-.196.108-.376.152-.502.152-.433.326-.859.498-1.284l.002-.005.061-.149c3.06.009 6.328-.949 8.542-3.133 2.476-2.443 3.099-6.383 3.104-9.717 0-.263-.018-.575-.21-.776-.118-.124-.296-.161-.461-.157-.08.002-.159.01-.239.019zm-7.738-9.67c.118-.007.238-.014.356-.013 1.454.01 2.909.66 3.93 1.685C19.483 4.92 19.767 6.4 19.77 8.293l-11.318.005c-.046-1.627.216-3.114 1.284-4.399 1.026-1.234 2.489-1.904 4.07-2.046z"/>
      <path d="m21.062 12.96-.061-.004c-3.145.429-6.913 1.946-8.882 4.528-1.312 1.721-1.799 3.512-1.749 5.652a20.47 20.47 0 0 1 5.996-6.642l.235-.169c.305-.224.642-.472.977-.57.236-.069.387-.019.594.101.148.168.273.351.248.587-.027.256-.285.446-.476.587-.197.144-.397.283-.598.421-.311.215-.622.429-.92.667-1.922 1.536-3.785 3.604-4.944 5.784 2.489-.049 5.218-.939 6.976-2.753 1.898-1.959 2.614-5.402 2.634-8.076.001-.041-.002-.046-.013-.071l-.01-.023-.007-.017zm.464-1.435.018-.002c.079-.008.159-.017.239-.019.165-.004.343.034.461.157.192.201.21.513.21.776-.005 3.334-.629 7.274-3.104 9.717-2.214 2.184-5.482 3.142-8.542 3.133l-.061.149-.002.005c-.173.425-.346.851-.498 1.284-.045.127-.096.307-.152.502-.118.411-.255.891-.39 1.091-.125.186-.317.229-.525.263a1.092 1.092 0 0 1-.197-.04.608.608 0 0 1-.374-.304c-.246-.526.462-2.305.766-3.071l.072-.183a7.442 7.442 0 0 1-.362-1.579c-.278-2.475.564-4.988 2.106-6.92 2.399-3.006 6.623-4.532 10.334-4.962z"/>
      <path d="m21.544 11.523-.018.002c-3.711.429-7.936 1.956-10.334 4.962-1.542 1.932-2.384 4.445-2.106 6.92.061.543.184 1.063.362 1.579l-.072.183c-.305.765-1.012 2.545-.766 3.071a.603.603 0 0 0 .374.304c.065.02.13.032.197.04.208-.034.4-.077.525-.263.134-.2.272-.68.39-1.091.056-.196.108-.376.152-.503.152-.433.326-.859.498-1.284l.002-.005.061-.149c3.06.009 6.328-.949 8.542-3.133 2.476-2.443 3.099-6.383 3.104-9.717 0-.263-.018-.575-.21-.776-.118-.124-.296-.161-.461-.157-.08.002-.159.01-.239.019zm-.543 1.433.061.004.007.017.01.023c.011.025.013.03.013.071-.02 2.674-.735 6.117-2.633 8.076-1.758 1.814-4.487 2.704-6.976 2.753 1.159-2.181 3.022-4.249 4.944-5.784.297-.237.608-.452.92-.667.2-.138.401-.277.598-.421.191-.14.449-.331.476-.587.025-.236-.1-.418-.248-.587-.207-.12-.358-.17-.594-.101-.335.098-.673.346-.977.57-.081.059-.159.117-.235.169a20.47 20.47 0 0 0-5.996 6.642c-.05-2.139.437-3.931 1.749-5.651 1.969-2.582 5.737-4.1 8.882-4.528zM69.327 20.586a4.763 4.763 0 1 0-9.52.337 4.763 4.763 0 0 0 9.52-.337zm-4.762-3.163c.767.031 1.388.215 1.973.733.697.616 1.085 1.507 1.136 2.43s-.239 1.859-.868 2.547c-.574.629-1.291.91-2.13.952-.766-.008-1.398-.127-2.002-.63-.706-.587-1.105-1.456-1.18-2.363-.078-.943.169-1.918.795-2.642.621-.717 1.355-.964 2.276-1.027zM56.09 20.191a4.76 4.76 0 1 0-9.452 1.133 4.76 4.76 0 1 0 9.452-1.133zm-5.149-2.729c.763-.062 1.453.018 2.097.461.723.497 1.178 1.265 1.328 2.123.171.974.01 2.016-.576 2.828-.513.711-1.154 1.064-2.008 1.2-.78.04-1.469-.008-2.126-.472a3.222 3.222 0 0 1-1.325-2.119c-.159-.944.031-2.03.595-2.815.495-.69 1.187-1.072 2.015-1.205zM79.311 15.988a4.502 4.502 0 0 0-3.102 1.678c-.86 1.086-1.155 2.464-.986 3.826a4.51 4.51 0 0 0 1.7 3.03c1.124.873 2.548 1.095 3.937.905.803-.11 2.011-.495 2.524-1.163a.872.872 0 0 0 .184-.654.632.632 0 0 0-.233-.427c-.158-.117-.367-.132-.554-.095-.26.051-.493.211-.713.364l-.138.094c-.97.504-2.045.741-3.111.395a2.968 2.968 0 0 1-1.738-1.512c-.184-.367-.275-.756-.357-1.155H81.3c.19 0 .395.007.605.014.542.017 1.123.036 1.602-.05a.714.714 0 0 0 .366-.194c.225-.219.265-.529.258-.829-.026-1.146-.564-2.277-1.398-3.053-.963-.896-2.124-1.232-3.419-1.174zm.141 1.432a2.847 2.847 0 0 1 1.967.498c.684.486 1.043 1.177 1.187 1.989-.58.007-1.161.005-1.741.004-.29-.001-.58-.002-.87-.001l-3.218.004c.147-.495.318-.945.635-1.36.51-.668 1.216-1.026 2.04-1.135z"/>
      <path d="M53.827 12.585c1.717-.041 3.444-.003 5.163-.006.979-.002 2.229-.081 3.179.017a.654.654 0 0 1 .391.161.821.821 0 0 1 .281.583c.005.2-.117.428-.261.562a.704.704 0 0 1-.386.166c-.396.064-.832.026-1.234.026l-2.132-.004-.001 7.913c.003.667.087 2.121-.013 2.689a.975.975 0 0 1-.219.492.697.697 0 0 1-.509.225c-.205.005-.405-.04-.553-.189-.174-.174-.238-.431-.259-.669-.04-.439-.003-.904.002-1.345.008-.653.002-1.306.001-1.959l.005-7.157c-.709.003-3.164.116-3.667-.112a.646.646 0 0 1-.365-.403.74.74 0 0 1 .064-.606c.12-.218.281-.312.512-.383zM42.593 15.994a5.902 5.902 0 0 1 1.881.171c.654.175 1.654.561 1.992 1.182.093.171.142.375.076.564-.067.193-.25.34-.435.416-.538.22-1.211-.521-1.717-.711-.823-.31-1.813-.293-2.613.081-.736.343-1.265.994-1.538 1.749-.318.877-.345 2.02.059 2.875.374.792 1.063 1.345 1.879 1.634.934.331 1.908.155 2.781-.264.271-.147.516-.342.825-.406a.567.567 0 0 1 .452.079.836.836 0 0 1 .325.547.689.689 0 0 1-.171.51c-.511.633-1.648.951-2.422 1.046-1.343.165-2.742-.105-3.817-.962a4.693 4.693 0 0 1-1.779-3.235 4.866 4.866 0 0 1 1.038-3.543 4.674 4.674 0 0 1 3.185-1.733zM71.28 13.591c.027-.001.053-.003.08-.003.238-.008.477.056.646.232.401.419.242 1.833.237 2.411.547.003 1.877-.167 2.287.198a.66.66 0 0 1 .209.511c.001.189-.048.371-.189.504-.383.363-1.766.22-2.308.217.005 1.162-.152 4.745.206 5.627.579 1.426 1.834.172 2.55.509a.69.69 0 0 1 .335.383c.081.226.009.428-.084.635l-.048.052c-.433.451-1.245.559-1.842.567-.692.01-1.347-.108-1.859-.62-.369-.37-.599-.878-.712-1.384-.174-.781-.102-1.646-.102-2.442l.002-3.326c-.42 0-.84-.003-1.26-.01a1.382 1.382 0 0 1-.198-.143c-.166-.149-.241-.372-.247-.592a.634.634 0 0 1 .189-.493c.339-.314 1.085-.201 1.517-.194-.001-.605-.134-1.69.095-2.223.102-.236.267-.322.495-.417z"/>
      <path d="M37.966 13.365c-.724-.071-4.265-.046-5.493-.028-.226.003-.435.019-.619.032a5.746 5.746 0 0 1-.409.022s-.489.115-.648.335c-.104.144-.139.327-.164.499-.131.915-.208 1.848-.285 2.778-.04.49-.081.978-.129 1.463l-.466 4.702c-.012.126-.034.297-.058.492-.079.63-.188 1.502-.117 1.85a.659.659 0 0 0 .311.452c.168.099.358.155.549.188h.002c.395-.001.991.005 1.657.012 1.38.014 4.89.032 5.706-.003a1.59 1.59 0 0 0 .489-.079.772.772 0 0 0 .457-.435.824.824 0 0 0-.029-.644.649.649 0 0 0-.432-.38h-7.054c.118-1.039.223-2.078.316-3.119l.083-.846.008-.084.214.003c.718.011 4.215.036 4.661-.03.163-.024.316-.066.436-.186a.76.76 0 0 0 .206-.589.757.757 0 0 0-.232-.508.636.636 0 0 0-.332-.153c-.416-.061-3.525-.044-4.31-.034-.21.003-.385.005-.498.005l.358-4.219h3.807c.194 0 .396.007.602.013.497.016 1.012.032 1.474-.039a.718.718 0 0 0 .424-.201.778.778 0 0 0 .215-.574.75.75 0 0 0-.289-.539.745.745 0 0 0-.409-.158z"/>
    </symbol>
  </defs>
</svg>
